{"title":"My.Little.Pony.Equestria.Girls.Friendship.Games.2015.EXTENDED.","uid":12501816,"size":499489766,"categoryP":"video","categoryS":"movies","magnet":"?xt=urn:btih:a3c5e45e7e59cee461258d70499095161c081824&amp;dn=My.Little.Pony.Equestria.Girls.Friendship.Games.2015.EXTENDED.&amp;tr=udp%3A%2F%2Ftracker.leechers-paradise.org%3A6969&amp;tr=udp%3A%2F%2Fzer0day.ch%3A1337&amp;tr=udp%3A%2F%2Fopen.demonii.com%3A1337&amp;tr=udp%3A%2F%2Ftracker.coppersurfer.tk%3A6969&amp;tr=udp%3A%2F%2Fexodus.desync.com%3A6969","seeders":2,"leechers":0,"uploader":"orangebirds","files":1,"time":1443379291,"description":"My.Little.Pony.Equestria.Girls.Friendship.Games.2015.EXTENDED-orangebirds\n\nSource : Livestream (Family Channel (Canada))\n\nVideo converted using x264 with setting CRF 18 preset very slow\nAudio in AAC 2.0\n\nNote : There is some scene that you not gonna find at the Discovery Family broadcast\n\nGeneral\nComplete name                            : My.Little.Pony.Equestria.Girls.Friendship.Games.2015.EXTENDED.HDTV.x264-orangebirds.mp4\nFormat                                   : MPEG-4\nFormat profile                           : Base Media\nCodec ID                                 : isom\nFile size                                : 476 MiB\nDuration                                 : 1h 12mn\nOverall bit rate mode                    : Variable\nOverall bit rate                         : 921 Kbps\nEncoded date                             : UTC 2015-09-27 08:20:25\nTagged date                              : UTC 2015-09-27 08:20:25\n\nVideo\nID                                       : 1\nFormat                                   : AVC\nFormat/Info                              : Advanced Video Codec\nFormat profile                           :   \nFormat settings, CABAC                   : Yes\nFormat settings, ReFrames                : 16 frames\nCodec ID                                 : avc1\nCodec ID/Info                            : Advanced Video Coding\nDuration                                 : 1h 12mn\nBit rate                                 : 768 Kbps\nMaximum bit rate                         : 3 753 Kbps\nWidth                                    : 640 pixels\nHeight                                   : 360 pixels\nDisplay aspect ratio                     : 16:9\nFrame rate mode                          : Constant\nFrame rate                               : 23.976 fps\nColor space                              : YUV\nChroma subsampling                       : 4:2:0\nBit depth                                : 8 bits\nScan type                                : Progressive\nBits/(Pixel*Frame)                       : 0.139\nStream size                              : 397 MiB (83%)\nWriting library                          : x264 core 148 r2597 e86f3a1\nEncoding settings                        : cabac=1 / ref=16 / deblock=1:0:0 / analyse=0x3:0x133 / me=umh / subme=10 / psy=1 / psy_rd=1.00:0.00 / mixed_ref=1 / me_range=24 / chroma_me=1 / trellis=2 / 8x8dct=1 / cqm=0 / deadzone=21,11 / fast_pskip=1 / chroma_qp_offset=-2 / threads=6 / lookahead_threads=1 / sliced_threads=0 / nr=0 / decimate=1 / interlaced=0 / bluray_compat=0 / constrained_intra=0 / bframes=8 / b_pyramid=2 / b_adapt=2 / b_bias=0 / direct=3 / weightb=1 / open_gop=0 / weightp=2 / keyint=240 / keyint_min=23 / scenecut=40 / intra_refresh=0 / rc_lookahead=60 / rc=crf / mbtree=1 / crf=18.0 / qcomp=0.60 / qpmin=0 / qpmax=69 / qpstep=4 / vbv_maxrate=62500 / vbv_bufsize=78125 / crf_max=0.0 / nal_hrd=none / filler=0 / ip_ratio=1.40 / aq=1:1.00\nEncoded date                             : UTC 2015-09-27 08:20:25\nTagged date                              : UTC 2015-09-27 08:21:08\n\nAudio\nID                                       : 2\nFormat                                   : AAC\nFormat/Info                              : Advanced Audio Codec\nFormat profile                           : LC\nCodec ID                                 : 40\nDuration                                 : 1h 12mn\nBit rate mode                            : Variable\nBit rate                                 : 150 Kbps\nMaximum bit rate                         : 225 Kbps\nChannel(s)                               : 2 channels\nChannel positions                        : Front: L R\nSampling rate                            : 44.1 KHz\nCompression mode                         : Lossy\nStream size                              : 77.4 MiB (16%)\nLanguage                                 : English\nEncoded date                             : UTC 2015-09-27 06:38:24\nTagged date                              : UTC 2015-09-27 08:21:08","torrent":{"xt":"urn:btih:a3c5e45e7e59cee461258d70499095161c081824","amp;dn":"My.Little.Pony.Equestria.Girls.Friendship.Games.2015.EXTENDED.","amp;tr":["udp%3A%2F%2Ftracker.leechers-paradise.org%3A6969","udp%3A%2F%2Fzer0day.ch%3A1337","udp%3A%2F%2Fopen.demonii.com%3A1337","udp%3A%2F%2Ftracker.coppersurfer.tk%3A6969","udp%3A%2F%2Fexodus.desync.com%3A6969"],"infoHash":"a3c5e45e7e59cee461258d70499095161c081824","infoHashBuffer":{"type":"Buffer","data":[163,197,228,94,126,89,206,228,97,37,141,112,73,144,149,22,28,8,24,36]},"announce":[],"urlList":[]}}